<mxfile host="app.diagrams.net" modified="2024-05-15T07:32:11.480Z" agent="Mozilla/5.0 (Windows NT 10.0; Win64; x64) AppleWebKit/537.36 (KHTML, like Gecko) Chrome/124.0.0.0 Safari/537.36" etag="OgFPxmyiOBv-Lt-3whb-" version="24.3.1" type="device">
  <diagram id="C5RBs43oDa-KdzZeNtuy" name="Page-1">
    <mxGraphModel dx="1706" dy="867" grid="1" gridSize="10" guides="1" tooltips="1" connect="1" arrows="1" fold="1" page="1" pageScale="1" pageWidth="827" pageHeight="1169" math="0" shadow="0">
      <root>
        <mxCell id="WIyWlLk6GJQsqaUBKTNV-0" />
        <mxCell id="WIyWlLk6GJQsqaUBKTNV-1" parent="WIyWlLk6GJQsqaUBKTNV-0" />
        <mxCell id="9jSr0MnQHAzzt0HbwjSK-77" style="edgeStyle=orthogonalEdgeStyle;rounded=0;orthogonalLoop=1;jettySize=auto;html=1;entryX=0;entryY=0.5;entryDx=0;entryDy=0;" parent="WIyWlLk6GJQsqaUBKTNV-1" source="WIyWlLk6GJQsqaUBKTNV-3" target="9jSr0MnQHAzzt0HbwjSK-43" edge="1">
          <mxGeometry relative="1" as="geometry" />
        </mxCell>
        <mxCell id="WIyWlLk6GJQsqaUBKTNV-3" value="Product arrives" style="rounded=1;whiteSpace=wrap;html=1;fontSize=12;glass=0;strokeWidth=1;shadow=0;" parent="WIyWlLk6GJQsqaUBKTNV-1" vertex="1">
          <mxGeometry x="40" y="140" width="120" height="40" as="geometry" />
        </mxCell>
        <mxCell id="9jSr0MnQHAzzt0HbwjSK-76" style="edgeStyle=orthogonalEdgeStyle;rounded=0;orthogonalLoop=1;jettySize=auto;html=1;entryX=0;entryY=0.5;entryDx=0;entryDy=0;" parent="WIyWlLk6GJQsqaUBKTNV-1" source="9jSr0MnQHAzzt0HbwjSK-43" target="9jSr0MnQHAzzt0HbwjSK-45" edge="1">
          <mxGeometry relative="1" as="geometry" />
        </mxCell>
        <mxCell id="9jSr0MnQHAzzt0HbwjSK-43" value="Product its weight gets saved" style="rounded=1;whiteSpace=wrap;html=1;fontSize=12;glass=0;strokeWidth=1;shadow=0;" parent="WIyWlLk6GJQsqaUBKTNV-1" vertex="1">
          <mxGeometry x="230" y="140" width="120" height="40" as="geometry" />
        </mxCell>
        <mxCell id="9jSr0MnQHAzzt0HbwjSK-46" style="edgeStyle=orthogonalEdgeStyle;rounded=0;orthogonalLoop=1;jettySize=auto;html=1;" parent="WIyWlLk6GJQsqaUBKTNV-1" source="9jSr0MnQHAzzt0HbwjSK-45" edge="1">
          <mxGeometry relative="1" as="geometry">
            <mxPoint x="650" y="160" as="targetPoint" />
          </mxGeometry>
        </mxCell>
        <mxCell id="9jSr0MnQHAzzt0HbwjSK-45" value="Product its shape gets saved" style="rounded=1;whiteSpace=wrap;html=1;fontSize=12;glass=0;strokeWidth=1;shadow=0;" parent="WIyWlLk6GJQsqaUBKTNV-1" vertex="1">
          <mxGeometry x="437" y="140" width="120" height="40" as="geometry" />
        </mxCell>
        <mxCell id="9jSr0MnQHAzzt0HbwjSK-49" style="edgeStyle=orthogonalEdgeStyle;rounded=0;orthogonalLoop=1;jettySize=auto;html=1;entryX=0;entryY=0.5;entryDx=0;entryDy=0;" parent="WIyWlLk6GJQsqaUBKTNV-1" source="9jSr0MnQHAzzt0HbwjSK-47" target="9jSr0MnQHAzzt0HbwjSK-48" edge="1">
          <mxGeometry relative="1" as="geometry" />
        </mxCell>
        <mxCell id="9jSr0MnQHAzzt0HbwjSK-47" value="Products gets checked for qr, barcode or text" style="rounded=1;whiteSpace=wrap;html=1;fontSize=12;glass=0;strokeWidth=1;shadow=0;" parent="WIyWlLk6GJQsqaUBKTNV-1" vertex="1">
          <mxGeometry x="640" y="130" width="120" height="60" as="geometry" />
        </mxCell>
        <mxCell id="9jSr0MnQHAzzt0HbwjSK-50" style="edgeStyle=orthogonalEdgeStyle;rounded=0;orthogonalLoop=1;jettySize=auto;html=1;" parent="WIyWlLk6GJQsqaUBKTNV-1" source="9jSr0MnQHAzzt0HbwjSK-48" edge="1">
          <mxGeometry relative="1" as="geometry">
            <mxPoint x="895" y="260" as="targetPoint" />
          </mxGeometry>
        </mxCell>
        <mxCell id="9jSr0MnQHAzzt0HbwjSK-52" value="Yes" style="edgeLabel;html=1;align=center;verticalAlign=middle;resizable=0;points=[];" parent="9jSr0MnQHAzzt0HbwjSK-50" vertex="1" connectable="0">
          <mxGeometry x="-0.3585" y="-3" relative="1" as="geometry">
            <mxPoint as="offset" />
          </mxGeometry>
        </mxCell>
        <mxCell id="9jSr0MnQHAzzt0HbwjSK-56" style="edgeStyle=orthogonalEdgeStyle;rounded=0;orthogonalLoop=1;jettySize=auto;html=1;entryX=0;entryY=0.5;entryDx=0;entryDy=0;" parent="WIyWlLk6GJQsqaUBKTNV-1" source="9jSr0MnQHAzzt0HbwjSK-48" target="9jSr0MnQHAzzt0HbwjSK-54" edge="1">
          <mxGeometry relative="1" as="geometry" />
        </mxCell>
        <mxCell id="9jSr0MnQHAzzt0HbwjSK-57" value="No" style="edgeLabel;html=1;align=center;verticalAlign=middle;resizable=0;points=[];" parent="9jSr0MnQHAzzt0HbwjSK-56" vertex="1" connectable="0">
          <mxGeometry x="-0.1667" y="2" relative="1" as="geometry">
            <mxPoint as="offset" />
          </mxGeometry>
        </mxCell>
        <mxCell id="9jSr0MnQHAzzt0HbwjSK-48" value="QR,barcode &lt;br&gt;or text detected?" style="rhombus;whiteSpace=wrap;html=1;shadow=0;fontFamily=Helvetica;fontSize=12;align=center;strokeWidth=1;spacing=6;spacingTop=-4;" parent="WIyWlLk6GJQsqaUBKTNV-1" vertex="1">
          <mxGeometry x="830" y="110" width="130" height="100" as="geometry" />
        </mxCell>
        <mxCell id="9jSr0MnQHAzzt0HbwjSK-58" style="edgeStyle=orthogonalEdgeStyle;rounded=0;orthogonalLoop=1;jettySize=auto;html=1;entryX=0.5;entryY=1;entryDx=0;entryDy=0;" parent="WIyWlLk6GJQsqaUBKTNV-1" source="9jSr0MnQHAzzt0HbwjSK-51" target="9jSr0MnQHAzzt0HbwjSK-54" edge="1">
          <mxGeometry relative="1" as="geometry" />
        </mxCell>
        <mxCell id="9jSr0MnQHAzzt0HbwjSK-51" value="Qr, barcode or text get read and information saved" style="rounded=1;whiteSpace=wrap;html=1;fontSize=12;glass=0;strokeWidth=1;shadow=0;" parent="WIyWlLk6GJQsqaUBKTNV-1" vertex="1">
          <mxGeometry x="835" y="260" width="120" height="60" as="geometry" />
        </mxCell>
        <mxCell id="9jSr0MnQHAzzt0HbwjSK-59" style="edgeStyle=orthogonalEdgeStyle;rounded=0;orthogonalLoop=1;jettySize=auto;html=1;" parent="WIyWlLk6GJQsqaUBKTNV-1" source="9jSr0MnQHAzzt0HbwjSK-54" edge="1">
          <mxGeometry relative="1" as="geometry">
            <mxPoint x="1240" y="160" as="targetPoint" />
          </mxGeometry>
        </mxCell>
        <mxCell id="9jSr0MnQHAzzt0HbwjSK-54" value="Product gets checked by computer vision" style="rounded=1;whiteSpace=wrap;html=1;fontSize=12;glass=0;strokeWidth=1;shadow=0;" parent="WIyWlLk6GJQsqaUBKTNV-1" vertex="1">
          <mxGeometry x="1040" y="140" width="120" height="40" as="geometry" />
        </mxCell>
        <mxCell id="9jSr0MnQHAzzt0HbwjSK-61" style="edgeStyle=orthogonalEdgeStyle;rounded=0;orthogonalLoop=1;jettySize=auto;html=1;" parent="WIyWlLk6GJQsqaUBKTNV-1" source="9jSr0MnQHAzzt0HbwjSK-60" edge="1">
          <mxGeometry relative="1" as="geometry">
            <mxPoint x="1325.75" y="290" as="targetPoint" />
          </mxGeometry>
        </mxCell>
        <mxCell id="9jSr0MnQHAzzt0HbwjSK-62" value="Yes" style="edgeLabel;html=1;align=center;verticalAlign=middle;resizable=0;points=[];" parent="9jSr0MnQHAzzt0HbwjSK-61" vertex="1" connectable="0">
          <mxGeometry x="-0.0083" y="-3" relative="1" as="geometry">
            <mxPoint as="offset" />
          </mxGeometry>
        </mxCell>
        <mxCell id="9jSr0MnQHAzzt0HbwjSK-67" style="edgeStyle=orthogonalEdgeStyle;rounded=0;orthogonalLoop=1;jettySize=auto;html=1;" parent="WIyWlLk6GJQsqaUBKTNV-1" source="9jSr0MnQHAzzt0HbwjSK-60" edge="1">
          <mxGeometry relative="1" as="geometry">
            <mxPoint x="1500" y="160" as="targetPoint" />
          </mxGeometry>
        </mxCell>
        <mxCell id="9jSr0MnQHAzzt0HbwjSK-71" value="No" style="edgeLabel;html=1;align=center;verticalAlign=middle;resizable=0;points=[];" parent="9jSr0MnQHAzzt0HbwjSK-67" vertex="1" connectable="0">
          <mxGeometry x="-0.3445" y="1" relative="1" as="geometry">
            <mxPoint x="1" as="offset" />
          </mxGeometry>
        </mxCell>
        <mxCell id="9jSr0MnQHAzzt0HbwjSK-60" value="&lt;font style=&quot;font-size: 11px;&quot;&gt;Did product&lt;br&gt;&amp;nbsp;get detected with &lt;br&gt;confidence rate higher then the &lt;br&gt;minimum confidence &lt;br&gt;percentage&lt;/font&gt;" style="rhombus;whiteSpace=wrap;html=1;shadow=0;fontFamily=Helvetica;fontSize=12;align=center;strokeWidth=1;spacing=6;spacingTop=-4;" parent="WIyWlLk6GJQsqaUBKTNV-1" vertex="1">
          <mxGeometry x="1241" y="85" width="169.5" height="150" as="geometry" />
        </mxCell>
        <mxCell id="9jSr0MnQHAzzt0HbwjSK-63" value="Succes" style="ellipse;whiteSpace=wrap;html=1;" parent="WIyWlLk6GJQsqaUBKTNV-1" vertex="1">
          <mxGeometry x="1266" y="290" width="120" height="50" as="geometry" />
        </mxCell>
        <mxCell id="9jSr0MnQHAzzt0HbwjSK-66" value="Failure" style="ellipse;whiteSpace=wrap;html=1;" parent="WIyWlLk6GJQsqaUBKTNV-1" vertex="1">
          <mxGeometry x="1505" width="120" height="50" as="geometry" />
        </mxCell>
        <mxCell id="9jSr0MnQHAzzt0HbwjSK-69" style="edgeStyle=orthogonalEdgeStyle;rounded=0;orthogonalLoop=1;jettySize=auto;html=1;entryX=1;entryY=0.5;entryDx=0;entryDy=0;" parent="WIyWlLk6GJQsqaUBKTNV-1" source="9jSr0MnQHAzzt0HbwjSK-68" target="9jSr0MnQHAzzt0HbwjSK-63" edge="1">
          <mxGeometry relative="1" as="geometry">
            <Array as="points">
              <mxPoint x="1565" y="315" />
            </Array>
          </mxGeometry>
        </mxCell>
        <mxCell id="9jSr0MnQHAzzt0HbwjSK-70" value="Yes" style="edgeLabel;html=1;align=center;verticalAlign=middle;resizable=0;points=[];" parent="9jSr0MnQHAzzt0HbwjSK-69" vertex="1" connectable="0">
          <mxGeometry x="-0.5884" y="-3" relative="1" as="geometry">
            <mxPoint as="offset" />
          </mxGeometry>
        </mxCell>
        <mxCell id="9jSr0MnQHAzzt0HbwjSK-72" style="edgeStyle=orthogonalEdgeStyle;rounded=0;orthogonalLoop=1;jettySize=auto;html=1;" parent="WIyWlLk6GJQsqaUBKTNV-1" source="9jSr0MnQHAzzt0HbwjSK-68" edge="1">
          <mxGeometry relative="1" as="geometry">
            <mxPoint x="1565" y="50" as="targetPoint" />
          </mxGeometry>
        </mxCell>
        <mxCell id="9jSr0MnQHAzzt0HbwjSK-73" value="No" style="edgeLabel;html=1;align=center;verticalAlign=middle;resizable=0;points=[];" parent="9jSr0MnQHAzzt0HbwjSK-72" vertex="1" connectable="0">
          <mxGeometry x="-0.0114" y="-2" relative="1" as="geometry">
            <mxPoint as="offset" />
          </mxGeometry>
        </mxCell>
        <mxCell id="9jSr0MnQHAzzt0HbwjSK-68" value="&lt;span style=&quot;font-size: 11px;&quot;&gt;Can product be indentified with all the data?&lt;/span&gt;" style="rhombus;whiteSpace=wrap;html=1;shadow=0;fontFamily=Helvetica;fontSize=12;align=center;strokeWidth=1;spacing=6;spacingTop=-4;" parent="WIyWlLk6GJQsqaUBKTNV-1" vertex="1">
          <mxGeometry x="1500" y="102.5" width="130" height="115" as="geometry" />
        </mxCell>
        <mxCell id="9jSr0MnQHAzzt0HbwjSK-75" style="edgeStyle=orthogonalEdgeStyle;rounded=0;orthogonalLoop=1;jettySize=auto;html=1;" parent="WIyWlLk6GJQsqaUBKTNV-1" source="9jSr0MnQHAzzt0HbwjSK-74" edge="1">
          <mxGeometry relative="1" as="geometry">
            <mxPoint x="230" y="824.9999999999998" as="targetPoint" />
          </mxGeometry>
        </mxCell>
        <mxCell id="9jSr0MnQHAzzt0HbwjSK-79" value="No" style="edgeLabel;html=1;align=center;verticalAlign=middle;resizable=0;points=[];" parent="9jSr0MnQHAzzt0HbwjSK-75" vertex="1" connectable="0">
          <mxGeometry x="-0.4688" y="-1" relative="1" as="geometry">
            <mxPoint x="11" y="-1" as="offset" />
          </mxGeometry>
        </mxCell>
        <mxCell id="9jSr0MnQHAzzt0HbwjSK-89" style="edgeStyle=orthogonalEdgeStyle;rounded=0;orthogonalLoop=1;jettySize=auto;html=1;entryX=0.5;entryY=0;entryDx=0;entryDy=0;" parent="WIyWlLk6GJQsqaUBKTNV-1" source="9jSr0MnQHAzzt0HbwjSK-74" target="9jSr0MnQHAzzt0HbwjSK-81" edge="1">
          <mxGeometry relative="1" as="geometry">
            <Array as="points">
              <mxPoint x="95" y="640" />
              <mxPoint x="500" y="640" />
            </Array>
          </mxGeometry>
        </mxCell>
        <mxCell id="9jSr0MnQHAzzt0HbwjSK-90" value="Yes" style="edgeLabel;html=1;align=center;verticalAlign=middle;resizable=0;points=[];" parent="9jSr0MnQHAzzt0HbwjSK-89" vertex="1" connectable="0">
          <mxGeometry x="-0.1026" y="-5" relative="1" as="geometry">
            <mxPoint as="offset" />
          </mxGeometry>
        </mxCell>
        <mxCell id="9jSr0MnQHAzzt0HbwjSK-74" value="Is there a &lt;br&gt;3D model file of the product?" style="rhombus;whiteSpace=wrap;html=1;shadow=0;fontFamily=Helvetica;fontSize=12;align=center;strokeWidth=1;spacing=6;spacingTop=-4;" parent="WIyWlLk6GJQsqaUBKTNV-1" vertex="1">
          <mxGeometry x="30" y="760" width="130" height="130" as="geometry" />
        </mxCell>
        <mxCell id="9jSr0MnQHAzzt0HbwjSK-85" style="edgeStyle=orthogonalEdgeStyle;rounded=0;orthogonalLoop=1;jettySize=auto;html=1;entryX=0;entryY=0.5;entryDx=0;entryDy=0;" parent="WIyWlLk6GJQsqaUBKTNV-1" source="9jSr0MnQHAzzt0HbwjSK-78" target="9jSr0MnQHAzzt0HbwjSK-81" edge="1">
          <mxGeometry relative="1" as="geometry" />
        </mxCell>
        <mxCell id="9jSr0MnQHAzzt0HbwjSK-78" value="Product gets 3D scanned" style="rounded=1;whiteSpace=wrap;html=1;fontSize=12;glass=0;strokeWidth=1;shadow=0;" parent="WIyWlLk6GJQsqaUBKTNV-1" vertex="1">
          <mxGeometry x="230" y="805" width="120" height="40" as="geometry" />
        </mxCell>
        <mxCell id="9jSr0MnQHAzzt0HbwjSK-86" style="edgeStyle=orthogonalEdgeStyle;rounded=0;orthogonalLoop=1;jettySize=auto;html=1;entryX=0;entryY=0.5;entryDx=0;entryDy=0;" parent="WIyWlLk6GJQsqaUBKTNV-1" source="9jSr0MnQHAzzt0HbwjSK-81" target="9jSr0MnQHAzzt0HbwjSK-82" edge="1">
          <mxGeometry relative="1" as="geometry" />
        </mxCell>
        <mxCell id="9jSr0MnQHAzzt0HbwjSK-81" value="3D model gets renderd" style="rounded=1;whiteSpace=wrap;html=1;fontSize=12;glass=0;strokeWidth=1;shadow=0;" parent="WIyWlLk6GJQsqaUBKTNV-1" vertex="1">
          <mxGeometry x="440" y="805" width="120" height="40" as="geometry" />
        </mxCell>
        <mxCell id="9jSr0MnQHAzzt0HbwjSK-87" style="edgeStyle=orthogonalEdgeStyle;rounded=0;orthogonalLoop=1;jettySize=auto;html=1;entryX=0;entryY=0.5;entryDx=0;entryDy=0;" parent="WIyWlLk6GJQsqaUBKTNV-1" source="9jSr0MnQHAzzt0HbwjSK-82" target="9jSr0MnQHAzzt0HbwjSK-83" edge="1">
          <mxGeometry relative="1" as="geometry" />
        </mxCell>
        <mxCell id="9jSr0MnQHAzzt0HbwjSK-82" value="animation being made of the renderd object" style="rounded=1;whiteSpace=wrap;html=1;fontSize=12;glass=0;strokeWidth=1;shadow=0;" parent="WIyWlLk6GJQsqaUBKTNV-1" vertex="1">
          <mxGeometry x="640" y="797.5" width="120" height="55" as="geometry" />
        </mxCell>
        <mxCell id="9jSr0MnQHAzzt0HbwjSK-88" style="edgeStyle=orthogonalEdgeStyle;rounded=0;orthogonalLoop=1;jettySize=auto;html=1;entryX=0;entryY=0.5;entryDx=0;entryDy=0;" parent="WIyWlLk6GJQsqaUBKTNV-1" source="9jSr0MnQHAzzt0HbwjSK-83" target="9jSr0MnQHAzzt0HbwjSK-84" edge="1">
          <mxGeometry relative="1" as="geometry" />
        </mxCell>
        <mxCell id="9jSr0MnQHAzzt0HbwjSK-83" value="For every animation frame the coordinates of the corners of the objects get saved" style="rounded=1;whiteSpace=wrap;html=1;fontSize=12;glass=0;strokeWidth=1;shadow=0;" parent="WIyWlLk6GJQsqaUBKTNV-1" vertex="1">
          <mxGeometry x="830" y="790" width="160" height="70" as="geometry" />
        </mxCell>
        <mxCell id="9jSr0MnQHAzzt0HbwjSK-84" value="Data set gets created with frame images and bounding box data" style="rounded=1;whiteSpace=wrap;html=1;fontSize=12;glass=0;strokeWidth=1;shadow=0;" parent="WIyWlLk6GJQsqaUBKTNV-1" vertex="1">
          <mxGeometry x="1060" y="790" width="150" height="70" as="geometry" />
        </mxCell>
        <mxCell id="9jSr0MnQHAzzt0HbwjSK-93" style="edgeStyle=orthogonalEdgeStyle;rounded=0;orthogonalLoop=1;jettySize=auto;html=1;entryX=0.5;entryY=1;entryDx=0;entryDy=0;" parent="WIyWlLk6GJQsqaUBKTNV-1" source="9jSr0MnQHAzzt0HbwjSK-92" target="9jSr0MnQHAzzt0HbwjSK-74" edge="1">
          <mxGeometry relative="1" as="geometry" />
        </mxCell>
        <mxCell id="9jSr0MnQHAzzt0HbwjSK-92" value="Product gets weight and named" style="rounded=1;whiteSpace=wrap;html=1;fontSize=12;glass=0;strokeWidth=1;shadow=0;" parent="WIyWlLk6GJQsqaUBKTNV-1" vertex="1">
          <mxGeometry x="35" y="940" width="120" height="40" as="geometry" />
        </mxCell>
      </root>
    </mxGraphModel>
  </diagram>
</mxfile>
